<svg width="67.59" height="69.898" viewBox="0 0 67.59 69.898" xmlns="http://www.w3.org/2000/svg"><g id="svgGroup" stroke-linecap="round" fill-rule="nonzero" font-size="9pt" stroke="#ffffff" stroke-width="0.5" fill="#ffffff" style="stroke:#ffffff;stroke-width:0.5;fill:#ffffff"><path d="M 48.006 49.408 A 28.784 28.784 0 0 1 47.585 51.913 C 46.278 58.004 43.111 62.594 38.691 65.611 A 26.82 26.82 0 0 1 23.43 69.888 A 27.681 27.681 0 0 1 19.881 69.663 A 22.28 22.28 0 0 1 0.006 46.976 A 26.076 26.076 0 0 1 2.125 36.602 C 3.903 32.464 6.572 29.155 9.242 26.698 A 31.483 31.483 0 0 1 9.606 26.368 A 136.666 136.666 0 0 1 12.499 23.836 C 18.538 18.718 21.67 17.359 26.995 17.011 A 78.634 78.634 0 0 1 32.006 16.896 L 41.094 16.896 L 41.094 12.928 L 0.902 12.928 L 0.902 0 L 67.59 0 L 67.59 68.224 L 51.334 68.224 L 51.334 49.408 L 48.006 49.408 Z M 27.91 28.8 A 49.051 49.051 0 0 0 24.348 31.478 C 19.226 35.741 17.286 39.658 17.286 44.544 C 17.286 52.48 23.046 57.344 31.366 57.344 A 17.067 17.067 0 0 0 45.793 49.934 C 49.31 45.021 51.334 37.715 51.334 28.16 L 51.334 12.672 L 27.91 28.8 Z"/></g></svg>