<svg width="74.006" height="77.291" viewBox="0 0 74.006 77.291" xmlns="http://www.w3.org/2000/svg"><g id="svgGroup" stroke-linecap="round" fill-rule="evenodd" font-size="9pt" stroke="#ffffff" stroke-width="0.25mm" fill="#ffffff" style="stroke:#ffffff;stroke-width:0.25mm;fill:#ffffff"><path d="M 14.906 0.2 L 4.906 21.4 C 14.669 21.4 24.707 34.501 18.446 41.674 A 8.937 8.937 0 0 1 17.506 42.6 L 18.106 43.3 C 20.939 40.717 23.842 35.008 24.731 29.3 A 22.171 22.171 0 0 0 25.006 25.9 A 20.162 20.162 0 0 0 21.949 15.184 A 12.317 12.317 0 0 0 16.806 10.5 A 10.272 10.272 0 0 1 15.863 10.014 C 11.577 7.503 13.587 3.887 14.806 3.7 C 18.502 3.131 22.556 20.253 36.16 22.048 A 17.904 17.904 0 0 0 38.506 22.2 A 108.116 108.116 0 0 0 42.247 22.158 A 37.384 37.384 0 0 0 43.406 22.1 A 1173.267 1173.267 0 0 1 40.482 25.524 C 34.451 32.559 25.473 42.833 18.006 50.3 A 50.089 50.089 0 0 1 11.915 41.724 A 48.936 48.936 0 0 1 8.906 35.3 A 25.275 25.275 0 0 0 4.471 41.551 C -2.26 54.543 -2.008 75.212 9.516 75.212 A 9.954 9.954 0 0 0 10.006 75.2 L 18.306 65.7 C 33.733 77.341 52.295 80.473 65.854 73.908 A 30.782 30.782 0 0 0 68.106 72.7 A 192.373 192.373 0 0 0 69.104 64.613 C 70.025 55.276 69.761 47.52 66.498 42.436 A 12.63 12.63 0 0 0 63.406 39.1 C 60.579 37.003 55.176 35.322 49.772 34.283 A 72.567 72.567 0 0 0 48.206 34 L 41.206 62.2 L 42.106 62.5 A 21.872 21.872 0 0 1 42.677 59.876 C 44.111 54.833 47.831 49.096 57.054 48.295 A 26.014 26.014 0 0 1 59.306 48.2 A 63.097 63.097 0 0 0 59.414 48.2 C 61.339 48.197 67.365 48.193 68.044 56.926 A 21.631 21.631 0 0 1 68.106 58.6 A 10.525 10.525 0 0 1 63.869 62.649 C 56.37 66.884 41.871 66.803 29.082 59.368 A 45.342 45.342 0 0 1 25.706 57.2 L 62.506 15.1 L 74.006 0.2 L 72.106 0 A 320.139 320.139 0 0 1 70.316 2.448 C 63.64 11.464 61.496 12.4 45.906 12.4 A 44.254 44.254 0 0 1 40.794 12.084 C 30.999 10.936 19.304 6.713 14.906 0.2 Z M 3.773 59.519 A 5.483 5.483 0 0 0 5.606 59.8 C 6.506 59.9 7.906 59.2 9.706 57.9 C 7.106 55.1 4.706 52 2.506 48.7 C 0.702 54.027 0.595 58.395 3.773 59.519 Z" vector-effect="non-scaling-stroke"/></g></svg>